{"title":"The Phantom of the Opera - 1943 - Claude Raines.avi","uid":4501847,"size":734455808,"categoryP":"video","categoryS":"movies","magnet":"?xt=urn:btih:971dc8583a9a6c17a0dfe6afdc47be1e388109d6&amp;dn=The+Phantom+of+the+Opera+-+1943+-+Claude+Raines.avi&amp;tr=udp%3A%2F%2Ftracker.openbittorrent.com%3A80&amp;tr=udp%3A%2F%2Fopen.demonii.com%3A1337&amp;tr=udp%3A%2F%2Ftracker.coppersurfer.tk%3A6969&amp;tr=udp%3A%2F%2Fexodus.desync.com%3A6969","seeders":1,"leechers":0,"uploader":"johnefp","files":-1,"time":1226429065,"description":"This is the story of a disfigured violinist who haunts the Paris Opera House\n &lt;a href=&quot;\nhttp://www.imdb.com/title/tt0036261/&quot; rel=&quot;nofollow&quot; target=&quot;_NEW&quot;&gt;\nhttp://www.imdb.com/title/tt0036261/&lt;/a&gt;\n\nsubs:Portugese only\n &lt;a href=&quot;\nhttp://www.opensubtitles.org/en/subtitles/3113570/phantom-of-the-opera-pb&quot; rel=&quot;nofollow&quot; target=&quot;_NEW&quot;&gt;\nhttp://www.opensubtitles.org/en/subtitles/3113570/phantom-of-the-opera-pb&lt;/a&gt;\n\nDirector:\nArthur Lubin\n\nWon 2 Oscars. Another 2 nominations\n\n\n\tNelson Eddy\t... \tAnatole Garron\n\tSusanna Foster\t... \tChristine Dubois\n\n\tClaude Rains\t... \tErique Claudin\n\tEdgar Barrier\t... \tRaoul D&amp;#039;Aubert\n\tLeo Carrillo\t... \tSignor Ferretti\n\tJane Farrar\t... \tBiancarolli\n\n   Video\n      Format : MPEG-4 Visual\n      Format profile : Streaming Video@L1\n      Format settings, BVOP : Yes\n      Format settings, QPel : No\n      Format settings, GMC : No warppoints\n      Format settings, Matrix : Custom\n      Codec ID : XVID\n      Codec ID/Hint : XviD\n      Duration : 1h 28mn\n      Bit rate : 903 Kbps\n      Width : 576 pixels\n      Height : 432 pixels\n      Display aspect ratio : 4/3\n      Frame rate : 25.000 fps\n      Resolution : 24 bits\n      Colorimetry : 4:2:0\n      Scan type : Progressive\n      Bits/(Pixel*Frame) : 0.145\n      Stream size : 574 MiB (82%)\n   Audio\n      Format : AC-3\n      Format/Info : Audio Coding 3\n      Codec ID : 2000\n      Duration : 1h 28mn\n      Bit rate mode : Constant\n      Bit rate : 192 Kbps\n      Channel(s) : 2 channels\n      Channel positions : L R\n      Sampling rate : 48.0 KHz\n      Stream size : 122 MiB (17%)\n      Alignment : Aligned on interleaves\n      Interleave, duration : 96 ms (2.40 video frames)\n      Interleave, preload duration : 96 ms\n\nenjoy  and  seed\n\n\n","torrent":{"xt":"urn:btih:971dc8583a9a6c17a0dfe6afdc47be1e388109d6","amp;dn":"The+Phantom+of+the+Opera+-+1943+-+Claude+Raines.avi","amp;tr":["udp%3A%2F%2Ftracker.openbittorrent.com%3A80","udp%3A%2F%2Fopen.demonii.com%3A1337","udp%3A%2F%2Ftracker.coppersurfer.tk%3A6969","udp%3A%2F%2Fexodus.desync.com%3A6969"],"infoHash":"971dc8583a9a6c17a0dfe6afdc47be1e388109d6","infoHashBuffer":{"type":"Buffer","data":[151,29,200,88,58,154,108,23,160,223,230,175,220,71,190,30,56,129,9,214]},"announce":[],"urlList":[]}}